<svg width="200" height="200" viewBox="0 0 200 200" fill="none" xmlns="http://www.w3.org/2000/svg">
<rect width="200" height="200" fill="#B0B0B0"/>
<path fill-rule="evenodd" clip-rule="evenodd" d="M47.0712 49.8997C47.8522 49.1186 49.1186 49.1186 49.8996 49.8996L149.071 149.071C149.852 149.852 149.852 151.119 149.071 151.9L143.414 157.557C142.633 158.338 141.367 158.338 140.586 157.557L137.615 154.586C137.24 154.211 136.731 154 136.201 154H48C46.8954 154 46 153.105 46 152V63.7991C46 63.2686 45.7893 62.7599 45.4142 62.3848L41.4143 58.3852C40.6333 57.6042 40.6333 56.3378 41.4143 55.5568L47.0712 49.8997ZM107.403 128.322C106.649 129.223 105.284 129.284 104.454 128.453L77.7675 101.767C76.8613 100.861 75.3487 101.029 74.6633 102.112L58.3099 127.95C58.1073 128.27 57.9998 128.641 57.9998 129.02V140C57.9998 141.104 58.8952 142 59.9998 142H120.201C121.983 142 122.875 139.846 121.615 138.586L110.747 127.717C109.916 126.886 108.551 126.947 107.798 127.849L107.403 128.322ZM152 46C153.105 46 154 46.8954 154 48V132.201C154 133.983 151.846 134.875 150.586 133.615L117.669 100.699C116.888 99.918 116.888 98.6516 117.669 97.8706L122.586 92.9542C123.367 92.1731 124.633 92.1732 125.414 92.9542L138.586 106.126C139.846 107.386 142 106.493 142 104.712V59.9998C142 58.8952 141.104 57.9998 140 57.9998H75.7986C75.2682 57.9998 74.7594 57.7891 74.3844 57.414L66.3846 49.4142C65.1246 48.1543 66.017 46 67.7988 46H152ZM61.414 78.3844C60.1541 77.1244 57.9998 78.0168 57.9998 79.7986V98.5862C57.9998 100.598 60.636 101.351 61.6983 99.6423L68.9013 88.0577C69.3922 87.2683 69.2744 86.2448 68.6171 85.5875L61.414 78.3844ZM115 70.0002C119.971 70.0002 124 74.0297 124 79.0002C124 83.9707 119.971 88.0002 115 88.0002C110.03 88.0002 106 83.9707 106 79.0002C106 74.0297 110.03 70.0002 115 70.0002Z" fill="#888888"/>
</svg>
