<svg viewBox="0 0 59 59" fill="none" xmlns="http://www.w3.org/2000/svg">
    <path d="M5.09473 13.4226C5.09473 14.6428 5.09474 15.619 5.09474 18.3036V47.5893C5.09474 50.2738 7.29117 52.4702 9.97569 52.4702H49.0233C51.7078 52.4702 53.9043 50.2738 53.9043 47.5893V43.2452C55.3441 42.3911 56.3447 40.8536 56.3447 39.0476V26.8452C56.3447 25.0393 55.3441 23.5018 53.9043 22.6476V18.3036C53.9043 15.619 51.7078 13.4226 49.0233 13.4226H5.09473ZM9.97569 18.3036H49.0233V21.9643H34.3804C31.6959 21.9643 29.4995 24.1607 29.4995 26.8452V39.0476C29.4995 41.7321 31.6959 43.9286 34.3804 43.9286H49.0233V47.5893H9.97569V18.3036ZM34.3804 26.8452H51.4638V39.0476H34.3804V26.8452ZM41.7019 29.2857C39.6763 29.2857 38.0412 30.9208 38.0412 32.9464C38.0412 34.972 39.6763 36.6071 41.7019 36.6071C43.7275 36.6071 45.3626 34.972 45.3626 32.9464C45.3626 30.9208 43.7275 29.2857 41.7019 29.2857Z" fill="#00458B"></path>
    <path d="M5.09473 8.10108C5.09473 6.99651 5.99016 6.10107 7.09473 6.10107H47.0233C48.1279 6.10107 49.0233 6.99651 49.0233 8.10107V10.982H9.97568V13.4225H5.09473V8.10108Z" fill="#00458B"></path>
</svg>