<svg viewBox="0 0 60 59" fill="none" xmlns="http://www.w3.org/2000/svg">
    <path d="M8.03516 13.9868L14.5972 25.716V32.8706L8.04284 44.5768L8.03516 13.9868Z" fill="#5B57A2"></path>
    <path d="M33.2305 21.4479L39.3793 17.6792L51.9634 17.6672L33.2305 29.1432V21.4479Z" fill="#D90751"></path>
    <path d="M33.1959 13.9178L33.2307 29.4469L26.6533 25.4054V2.19214L33.1964 13.9178H33.1959Z" fill="#FAB718"></path>
    <path d="M51.9636 17.6675L39.3791 17.6795L33.1959 13.918L26.6533 2.19238L51.9632 17.6678L51.9636 17.6675Z" fill="#ED6F26"></path>
    <path d="M33.2307 44.6418V37.1075L26.6533 33.1428L26.6567 56.3792L33.2307 44.6418Z" fill="#63B22F"></path>
    <path d="M39.3643 40.9074L14.5968 25.716L8.03516 13.9868L51.9371 40.8921L39.3639 40.9074H39.3643Z" fill="#1487C9"></path>
    <path d="M26.6572 56.3792L33.2301 44.6419L39.3636 40.9075L51.9364 40.8921L26.6572 56.3792Z" fill="#017F36"></path>
    <path d="M8.04297 44.5769L26.7073 33.1435L20.4324 29.2935L14.5973 32.8707L8.04297 44.5769Z" fill="#984995"></path>
</svg>